<!DOCTYPE svg PUBLIC "-//W3C//DTD SVG 20010904//EN" "http://www.w3.org/TR/2001/REC-SVG-20010904/DTD/svg10.dtd">
<svg version="1.0" xmlns="http://www.w3.org/2000/svg" width="400px" height="129px" viewBox="0 0 4000 1290" preserveAspectRatio="xMidYMid meet">
<g id="layer101" fill="#4e4e4e" stroke="none">
<path d="M2083 970 c-23 -12 -49 -32 -57 -45 -14 -22 -14 -24 9 -39 14 -9 25 -12 25 -6 0 19 65 50 106 50 57 0 94 -30 94 -75 l0 -34 -35 21 c-62 36 -138 13 -189 -55 -29 -39 -34 -140 -8 -187 27 -50 76 -80 128 -80 44 0 94 17 94 32 0 4 5 8 10 8 6 0 10 -9 10 -21 0 -16 5 -20 28 -17 l27 3 0 185 c0 165 -2 188 -19 213 -41 61 -150 84 -223 47z m151 -191 c23 -18 26 -27 26 -88 0 -74 -9 -90 -63 -110 -66 -25 -135 43 -124 122 11 84 98 125 161 76z"/>
<path d="M1355 835 c-24 -23 -25 -30 -25 -140 0 -108 -1 -115 -20 -115 -16 0 -20 -7 -20 -30 0 -23 4 -30 20 -30 17 0 20 -7 20 -50 l0 -50 35 0 35 0 0 49 c0 49 1 50 33 53 27 2 32 7 32 28 0 21 -5 26 -32 28 l-33 3 0 110 c0 116 4 124 50 99 15 -8 21 -6 30 9 16 30 12 38 -21 50 -49 17 -78 13 -104 -14z"/>
<path d="M1582 843 c-18 -9 -45 -32 -60 -51 -23 -30 -27 -45 -27 -102 0 -57 4 -72 28 -103 40 -52 79 -70 142 -65 65 5 111 37 136 92 25 55 24 104 -4 157 -42 79 -137 111 -215 72z m131 -63 c78 -62 33 -203 -64 -203 -23 0 -40 8 -60 31 -51 57 -50 112 1 163 35 35 85 39 123 9z"/>
<path d="M1892 844 c-22 -15 -22 -19 -22 -230 l0 -214 30 0 30 0 2 198 3 197 32 -1 c26 -2 32 3 36 23 3 19 -1 26 -20 34 -35 13 -66 11 -91 -7z"/>
<path d="M2475 846 c-74 -34 -115 -119 -95 -198 14 -53 25 -68 74 -102 72 -49 163 -29 220 47 17 22 21 43 21 97 0 74 -14 103 -67 143 -34 25 -113 32 -153 13z m129 -75 c56 -59 37 -163 -35 -187 -90 -30 -161 74 -114 166 30 59 103 69 149 21z"/>
</g>
<g id="layer102" fill="#f37726" stroke="none">
<path d="M879 866 c-44 -12 -109 -50 -109 -64 1 -4 18 -27 40 -51 l38 -44 51 21 c59 26 151 30 151 8 0 -10 -24 -20 -72 -31 -40 -9 -86 -23 -103 -30 -16 -8 -63 -16 -104 -17 -49 -2 -76 -7 -79 -15 -3 -10 13 -13 58 -13 57 0 60 -1 50 -19 -16 -30 -12 -93 8 -131 11 -20 38 -45 63 -60 38 -21 57 -24 130 -24 70 1 95 5 143 27 l57 27 -16 27 c-9 16 -27 41 -39 56 -23 28 -24 29 -55 13 -42 -22 -136 -26 -136 -7 0 10 29 21 87 36 49 11 93 26 100 33 7 7 39 12 75 12 49 0 63 3 63 15 0 11 -12 15 -46 15 -41 0 -45 2 -34 15 19 23 15 99 -6 135 -30 50 -103 80 -193 79 -42 0 -97 -6 -122 -13z"/>
</g>


</svg>